<svg xmlns="http://www.w3.org/2000/svg" viewBox="0 0 180 230">
  <style>
    .stroke { stroke: #000; fill: none; }
    .joint { fill: #fff; stroke: #000; }
    @media (prefers-color-scheme: dark) {
      .stroke { stroke: #e8e8e8; }
      .joint { fill: #0a0a0a; stroke: #e8e8e8; }
    }
  </style>
  <circle cx="90" cy="32" r="20" class="stroke" stroke-width="2.2"/>
  <path d="M80 51 Q77 62, 73 76 Q68 94, 67 110 Q66 126, 68 140 Q70 152, 72 160 Q72 170, 68 182 Q62 196, 54 210" class="stroke" stroke-width="2" stroke-linecap="round"/>
  <path d="M73 78 Q62 84, 50 94 Q38 106, 30 120" class="stroke" stroke-width="1.8" stroke-linecap="round"/>
  <path d="M100 51 Q102 58, 104 66" class="stroke" stroke-width="2"/>
  <line x1="104" y1="66" x2="108" y2="86" class="stroke" stroke-width="2"/>
  <line x1="108" y1="86" x2="110" y2="110" class="stroke" stroke-width="1.8"/>
  <line x1="110" y1="110" x2="108" y2="140" class="stroke" stroke-width="1.6"/>
  <line x1="108" y1="140" x2="104" y2="160" class="stroke" stroke-width="1.6"/>
  <line x1="104" y1="160" x2="112" y2="186" class="stroke" stroke-width="1.4"/>
  <line x1="112" y1="186" x2="124" y2="210" class="stroke" stroke-width="1.2"/>
  <path d="M100 51 Q108 60, 118 72" class="stroke" stroke-width="1.8"/>
  <line x1="118" y1="72" x2="134" y2="86" class="stroke" stroke-width="1.5"/>
  <line x1="134" y1="86" x2="146" y2="104" class="stroke" stroke-width="1.3"/>
  <circle cx="104" cy="66" r="3.2" class="joint" stroke-width="1.2"/>
  <circle cx="108" cy="86" r="3.2" class="joint" stroke-width="1.2"/>
  <circle cx="104" cy="160" r="3.2" class="joint" stroke-width="1.2"/>
  <circle cx="118" cy="72" r="3.2" class="joint" stroke-width="1.2"/>
  <circle cx="134" cy="86" r="2.8" class="joint" stroke-width="1"/>
</svg>
